<?xml version="1.0" encoding="utf-8"?>
<!-- Generator: Adobe Illustrator 19.0.0, SVG Export Plug-In . SVG Version: 6.00 Build 0)  -->
<svg version="1.1" id="Layer_1" xmlns="http://www.w3.org/2000/svg" xmlns:xlink="http://www.w3.org/1999/xlink" x="0px" y="0px"
	 viewBox="0 0 126.2 83.7" enable-background="new 0 0 126.2 83.7" xml:space="preserve">
<g id="XMLID_2_">
	<g id="XMLID_1_">
		<path id="XMLID_17_" fill="none" stroke="#BE2428" stroke-width="6" stroke-linecap="round" stroke-miterlimit="10" d="M5,5.5
			c14.5,0,14.5,12,29,12c14.5,0,14.5-12,29-12c14.5,0,14.5,12,29,12s14.5-12,29-12"/>
	</g>
	<g id="XMLID_3_">
		<path id="XMLID_15_" fill="none" stroke="#BE2428" stroke-width="6" stroke-linecap="round" stroke-miterlimit="10" d="M5,35.5
			c14.5,0,14.5,12,29,12c14.5,0,14.5-12,29-12c14.5,0,14.5,12,29,12s14.5-12,29-12"/>
	</g>
	<g id="XMLID_4_">
		<path id="XMLID_18_" fill="none" stroke="#BE2428" stroke-width="6" stroke-linecap="round" stroke-miterlimit="10" d="M5,65.5
			c14.5,0,14.5,12,29,12c14.5,0,14.5-12,29-12c14.5,0,14.5,12,29,12s14.5-12,29-12"/>
	</g>
</g>
</svg>
