<?xml version="1.0" encoding="utf-8"?>
<!-- Generator: Adobe Illustrator 19.0.0, SVG Export Plug-In . SVG Version: 6.00 Build 0)  -->
<svg version="1.1" id="Layer_1" xmlns="http://www.w3.org/2000/svg" xmlns:xlink="http://www.w3.org/1999/xlink" x="0px" y="0px"
	 viewBox="0 0 175 190" enable-background="new 0 0 175 190" xml:space="preserve">
<g>
	<g>
		
			<path id="XMLID_11_" fill="none" stroke="#CD7F32" stroke-width="5" stroke-linecap="round" stroke-linejoin="round" stroke-miterlimit="10" d="
			M125.8,95l28.2-38.5l-47.4,5.2L87.3,18.1L68.1,61.7l-47.1-5.1c0.6-1,0.9-2.2,0.9-3.5c0-4-3.2-7.2-7.2-7.2c-4,0-7.2,3.2-7.2,7.2
			c0,4,3.2,7.2,7.2,7.2c2.6,0,5-1.4,6.2-3.5l28,38.3l-28.2,38.5l47.4-5.2l19.2,43.6l19.2-43.6l47.4,5.2L125.8,95z"/>
		
			<circle id="XMLID_10_" fill="none" stroke="#CD7F32" stroke-width="5" stroke-linecap="round" stroke-linejoin="round" stroke-miterlimit="10" cx="87.3" cy="10.9" r="7.2"/>
		
			<circle id="XMLID_9_" fill="none" stroke="#CD7F32" stroke-width="5" stroke-linecap="round" stroke-linejoin="round" stroke-miterlimit="10" cx="87.3" cy="179.1" r="7.2"/>
		
			<circle id="XMLID_8_" fill="none" stroke="#CD7F32" stroke-width="5" stroke-linecap="round" stroke-linejoin="round" stroke-miterlimit="10" cx="161.1" cy="136.7" r="7.2"/>
		
			<circle id="XMLID_7_" fill="none" stroke="#CD7F32" stroke-width="5" stroke-linecap="round" stroke-linejoin="round" stroke-miterlimit="10" cx="13.9" cy="136.7" r="7.2"/>
		
			<circle id="XMLID_6_" fill="none" stroke="#CD7F32" stroke-width="5" stroke-linecap="round" stroke-linejoin="round" stroke-miterlimit="10" cx="160.4" cy="53.1" r="7.2"/>
	</g>
	<g>
		<g>
			
				<polygon id="XMLID_5_" fill="none" stroke="#CD7F32" stroke-width="5" stroke-linecap="round" stroke-linejoin="round" stroke-miterlimit="10" points="
				117.2,90.8 87,121 56.9,90.8 87,90.8 			"/>
			
				<polygon id="XMLID_4_" fill="none" stroke="#CD7F32" stroke-width="5" stroke-linecap="round" stroke-linejoin="round" stroke-miterlimit="10" points="
				56.9,90.8 71.8,75.7 102.1,75.7 117.2,90.8 87,90.8 			"/>
		</g>
		
			<polyline id="XMLID_3_" fill="none" stroke="#CD7F32" stroke-width="5" stroke-linecap="round" stroke-linejoin="round" stroke-miterlimit="10" points="
			71.9,75.7 79.5,90.8 87,75.7 94.7,90.8 102.2,75.7 		"/>
		
			<line id="XMLID_2_" fill="none" stroke="#CD7F32" stroke-width="5" stroke-linecap="round" stroke-linejoin="round" stroke-miterlimit="10" x1="56.9" y1="90.8" x2="116.7" y2="90.8"/>
		
			<polyline id="XMLID_1_" fill="none" stroke="#CD7F32" stroke-width="5" stroke-linecap="round" stroke-linejoin="round" stroke-miterlimit="10" points="
			79.5,90.8 87,121 94.7,90.8 		"/>
	</g>
</g>
</svg>
